<svg xmlns="http://www.w3.org/2000/svg" width="100" height="100"><path fill="#140502" d="M0 0h100v100H0z"/><path fill="#bb8154" d="M0 0h5v1.7l-.4 33.5V38A25 25 0 0 0 9 53.9l1.6 1.6C12 57 12 57 12 59l3-1-2-2h4l1-5q4.6 1.4 8.8 3.6c4.4 2 8.4 1.7 13.2 1.4l1-1.9 2-4.1 4.3-.2h2.4c2.8.3 3.6 1 5.3 3.2l-1-7 8.6-1.5 2.5-.4A61 61 0 0 1 78 43c-3 2-3 2-6 3l2 2-1 4 8-4a64 64 0 0 1-21 43.8c-4.2 3-7.8 5.2-13 4.8-10-3-18-14.6-23.2-23C23 72 23 72 23 70l-3 2c-.4 2-.4 2-.3 4.4v2.5l.1 2.7v2.7L20 91h3c1.2-2.4 1.3-4.4 1.6-7.1l.2-2.8.2-2.1a106 106 0 0 1 7 7.5c5.6 6.3 9 10 17.6 10.9C59.8 96.3 65.8 87.4 72 80l2-3 1 7.6.3 2.1a13 13 0 0 1-1.3 8.2 14 14 0 0 1-9.3 5.7 164 164 0 0 1-16.3 0q-7.5 0-14.8-.2L0 100z"/><path fill="#060504" d="M5 0h88c.7 3.9 1.1 7 1.1 10.7v7.8L94 25h-2l-1 5-3.4.8c-3.8.9-3.8.9-5.6 4.2-3.1.2-3.1.2-6 0l1.2-3.4c.4-2.3.4-2.3-.2-4.6-3.4-3.6-7-6.1-11-9l-2 14q-3-6-5.6-12Q56 14.8 53 10l-.2 1.9-.7 8.6-.2 3c-1.1 13-1.1 13-3.9 18.5q-10.2-1-20-3.6l-3-.7-7-1.7v2h-2l-1 2v-2h-2v-6c-3.7 1.1-3.7 1.1-6 4-1 7.4-1 7.4 1.3 14.3l3.4 3.4L13 55v2l3 1-4 1-3.4-4.8-2-2.7A15 15 0 0 1 4 42V7c0-2 0-2 1-7"/><path fill="#601307" d="M0 0h5v1.7l-.4 33.5V38A25 25 0 0 0 9 53.9l1.6 1.6C12 57 12 57 12 59l3-1-2-2h6l1.6 6.9 1 3.8q0 1.7.4 3.3l-2 2c-.3 2-.3 2-.2 4.4v5.2l.1 2.7.1 6.7h3c1.2-2.4 1.3-4.4 1.6-7.1l.2-2.8.2-2.1a106 106 0 0 1 7 7.5c5.6 6.3 9 10 17.6 10.9C59.8 96.3 65.8 87.4 72 80l2-3 1 7.6.3 2.1a13 13 0 0 1-1.3 8.2 14 14 0 0 1-9.3 5.7 164 164 0 0 1-16.3 0q-7.5 0-14.8-.2L0 100z"/><path fill="#090706" d="M5 0h32c-1 6-1 6-2 8h-2l-.6 2c-1.9 4-4.5 6.7-7.4 10l9-2v3h2v11h2q1.9-8 3-16 .8-3.5 2-7c3.3 5.2 4.6 8.8 5 15h1l1-8 2 1c-1 18.9-1 18.9-4 25q-10.2-1-20-3.6l-3-.7-7-1.7v2h-2l-1 2v-2h-2v-6c-3.7 1.1-3.7 1.1-6 4-1 7.4-1 7.4 1.3 14.3l3.4 3.4L13 55v2l3 1-4 1-3.4-4.8-2-2.7A15 15 0 0 1 4 42V7c0-2 0-2 1-7"/><path fill="#350e07" d="M52 17c3.3 3.3 5.1 5.6 7.3 9.5l1.6 2.8C62 32 62 32 62 34.2c-1.5 3-4.1 4.2-6.9 5.8q9.6-1.4 19-3.6c2-.4 2-.4 6-.4l1 4c-5.2 5.2-21.7 3.6-29 4v6h-9l-2 4c-1.1 1.8-1.1 1.8-3 3-7.8 1.3-13.3-2.3-20-6v8l-1-3H15a14 14 0 0 1-9-8c-.8-5-1.2-9.8 1.3-14.4C9 32 9 32 13 32v6h5v-2q10.5.8 20.6 3.6L48 42z"/><path fill="#edb988" d="m50 51 .3 2 .7 2 3 1v2a31 31 0 0 0 10.8 2.6l3 .3 2.2.1c-1.6 13-1.6 13-6 18h-2v3l-2 1-1 3h-2l-1 3h-8v2h-3v-2l-3-1a85 85 0 0 1 14-1l-1-3-2.3-.2-3-.2-3-.3C44 83 44 83 41 82v-2h17v-2l-18 1 1 6-4 1v-3l-1.9-1-4.1-2-.4-3.2c-.4-3.8-.4-3.8-2.2-6.8A18 18 0 0 1 27 60l2.3-.2 3-.2 2.9-.3Q38.7 59 42 58l1-4h2c1.4 2.8 1.3 5.5 1.6 8.6l.2 3.6.2 2.8 3 1-.3-3.1-.3-4.2-.1-2c-.3-3.4-.4-6.4.7-9.7"/><path fill="#fafbf8" d="M93 0h7v73l-7-3-7-2.2-3.4-1L80 66c.2-3.3.2-3.3 1-7l5-3c4.7-5.2 7.1-9.4 7.1-16.5V31z"/><path fill="#e88823" d="M78 68c7.7.6 16.2 2.5 22 8 .5 2.5.5 2.5.4 5.5v3l-.2 3.7-.2 11.8H71l1-2h2l.8-1.7c1.4-2.6 3-4.4 5.2-6.3h2l1-3h2v-3h-3l-1-14h-3z"/><path fill="#4c1b06" d="M79 61h2l-1 5q1 0 2 .3c7 1 12.2 3 18 6.7l-1 3-2.6-1.7C90.7 71 84.3 69.6 78 68v2h3c1 4.8 1 9.2 1 14h3c0 3 0 3-1.4 4.7C82 90 82 90 80 90l-1 3c-1.7 1.9-1.7 1.9-3.9 3.8l-2 1.9L71 100l-3-1 3-2.2c2.6-2.4 3-3.5 3.2-7q-.5-5-1.2-9.8l-2 2.4c-10.4 13-10.4 13-18 15.6-5.9.6-10.3-.5-15-4-9.5-9-9.5-9-12-14l-.1 1.9-.3 2.4-.2 2.4C25 89 25 89 23 92l-4-1V71l4-1 1 1.8c3 5.4 6.4 10 10.6 14.6L36 88c3.8 4.1 7 6.7 12.7 7.6 6.5-.2 11.8-4.9 16-9.5q2.4-3 4.3-6.1l1.6-2.4q4.9-8 8.4-16.6"/><path fill="#bf825b" d="M78 43c-3 2-3 2-6 3l2 2-1 4 8-4c-2 17.5-2 17.5-6 24-2.1 1.3-2.1 1.3-4 2l1-8 3-1-.9-4.4-.5-2.5L73 56l-2-1v3h-4v2l-4.2.1-2.4.1c-4.2-.3-6.7-2.2-9.4-5.2-1.4 1.1-1.4 1.1-1.1 4.2V67l.1 3-4-1-1-15h-2l-.2 1.9C42 58 42 58 40.3 59.3c-3 1-5.2.5-8.3-.3l-1-2h1.9l2.5-.2 2.4-.2c2.4-.4 2.4-.4 3.4-2.5L42 52l1-2 4.3-.2h2.4c2.8.3 3.6 1 5.3 3.2l-1-7 8.6-1.5 2.5-.4A61 61 0 0 1 78 43"/><path fill="#040403" d="M67 0h26c.7 3.9 1.1 7 1.1 10.7v7.8L94 25h-2v3l-4 1-.6-1.7c-1.9-3.1-4.6-5-7.4-7.3l-1-3-3.5-3.4C71.9 9.6 68.7 5 67 0"/><path fill="#f8f7f6" d="M0 0h5v1.7l-.4 33.5V38A28 28 0 0 0 13 59c2.1.9 2.1.9 4 1l1 5-18 6z"/><path fill="#b37a56" d="M52 17c3.3 3.3 5.1 5.6 7.3 9.5l1.6 2.8C62 32 62 32 62 34.2c-1.5 3-4.1 4.2-6.9 5.8q9.6-1.4 19-3.6c2-.4 2-.4 6-.4l1 4c-5.2 5.2-21.7 3.6-29 4v4l-9-1v-3l-2-.2-14.9-1.3c-1.4 0-1.4 0-2.7-.2C21 42 21 42 18 41v-5q10.5.8 20.6 3.6L48 42z"/><path fill="#916040" d="M73 77h1l1 7.6.3 2.1c.4 4.3-.2 6.9-3 10.3-5.2 4.5-11.1 4-17.7 3.8h-3.8A61 61 0 0 1 24 94l1-15q4.9 4.9 9.4 10.1c4.8 5.4 8 7.5 15.2 8.3 6.5-.7 10-3.7 14.4-8.4l2-2.2c4.3-4.4 4.3-4.4 7-9.8"/><path fill="#e5ac79" d="M27 60h5l-1.6 1.1c-1.8 2-1.8 2-1 5q.2 1.5.6 2.9h2l1 3h2l2 6 .4-2 .6-2 2-1 2 2c2 .3 2 .3 4.2.3h12.6c2.5-.3 4.1-1 6.2-2.3 1.1-2.2 1.1-2.2 1.8-4.6l.7-2.5.5-1.9h1c-.3 6.1-1 10.2-5 15h-2v3l-2 1-1 3h-2l-1 3h-8v2h-3v-2l-3-1a85 85 0 0 1 14-1l-1-3-2.3-.2-3-.2-3-.3C44 83 44 83 41 82v-2h17v-2l-18 1 1 6-4 1v-3l-1.9-1-4.1-2-.4-3.2c-.4-3.8-.4-3.8-2.2-6.8A18 18 0 0 1 27 60"/><path fill="#ae5a1e" d="M19 67v2l-3 2 1 3v14c-3 1-3 1-6 0v-2l-2.7-.3C4.8 84.9 2.7 84.5 0 82q-1.1-4 0-8c3-2.9 6.2-4 10-5.2l3.2-1C16 67 16 67 19 67"/><path fill="#c36a0e" d="m0 84 4 2 10.2 5 2.7 1.3Q25.2 96.4 34 99v1H0z"/><path fill="#f6f5f2" d="m4 46 3.6 5.4 1.8 2.7 1.7 2.7c2 2.3 3 2.9 5.9 3.2l1 5-18 6-.2-7.2v-2.1C-.4 57.4 0 55.2 3 52c.7-3.2.7-3.2 1-6"/><path fill="#460502" d="M79 61h2l-1 5q1 0 2 .3c7 1 12.2 3 18 6.7l-1 3-2.6-1.7C90.7 71 84.3 69.6 78 68v2h3c1 4.8 1 9.2 1 14h3c0 3 0 3-1.4 4.7C82 90 82 90 80 90l-1 3c-1.7 1.9-1.7 1.9-3.9 3.8l-2 1.9L71 100l-3-1 1.3-1.2 1.6-1.5 1.7-1.6A10 10 0 0 0 75 89h2V71l-2-1z"/><path fill="#5c291d" d="M78 43c-3 2-3 2-6 3l2 2c-.5 2.8-.5 2.8-2 6-5 3.2-10.3 3.3-16 3a27 27 0 0 1-2-11l8.6-1.5 2.5-.4A61 61 0 0 1 78 43"/><path fill="#b0520a" d="m81 70 5 1 .6 2.2.8 3 .8 3c.8 3 .8 3 2.2 6.2.6 2.6.6 2.6-.3 5.2a32 32 0 0 1-7.6 6.3c-1.7 1-1.7 1-2.5 3.1h-9l1-2h2l.8-1.7c1.4-2.6 3-4.4 5.2-6.3h2l1-3h2v-3h-3z"/><path fill="#17110b" d="M42 9c4.7 4.3 5.6 8.8 6 15v11h-1l-1 6c-5.7-1.9-5.7-1.9-8-3l1.4-10.7.4-3.1.4-3 .4-2.7c.4-2.5.4-2.5 1-4.6s.5-2 .4-4.9"/><path fill="#8e593c" d="M25 79q4.9 4.9 9.4 10.1c4.3 4.8 7.3 7.6 14 8L55 97l-1 2c-11.3 2.7-19.8-.4-30-5z"/><path fill="#696b68" d="M15 0h13a62 62 0 0 1-12 19c-2.2.7-2.2.7-4 1l.5-1.8c.6-2.3.6-2.3.5-5.2l-3 1a50 50 0 0 1 5-14"/><path fill="#89562e" d="M52 17c3.1 2.9 5.2 5.8 7.3 9.5l1.6 2.8c1.1 2.7 1.1 2.7 1 5-1.4 2.8-4.2 4-6.9 5.7v2l-7-1 1.4-8 .4-2.3Q51.1 23.9 52 17"/><path fill="#5f615e" d="M59 0c5-1 5-1 8 0 2.2 2.6 3.7 5.3 5.4 8.2 1.8 3.2 4 5.3 6.6 7.8l4 6 2 3C74.7 22.1 66.3 12.3 60 4c-.7-2.3-.7-2.3-1-4"/><path fill="#edb883" d="m42 59-1 1.6c-1.2 3-1.1 5.3-1 8.4l2 1h-2l-1 8h-3l-1-6h-2l-1 2-2-4-1.1-2a15 15 0 0 1-.9-7l9.2-2.4C40 58 40 58 42 59"/><path fill="#b58362" d="M85 31c2.4-.2 2.4-.2 5 0 2.8 4.3 2.6 8 2 13-1 3-2.4 5.3-4 8h-2v2l-3 1 .4-9.2.2-2.6Q83.7 37 85 31"/><path fill="#c7895f" d="m28 75 1 2 3 1c3.4 3 6 6 8 10v2h3v2c8-.4 8-.4 15-4l2.2-1c2.1-1 2.1-1 3.8-4l3 1a31 31 0 0 1-16 12.6C46 97 42.7 95 39 92 28.8 82 28.8 82 26 76z"/><path fill="#250f05" d="m50 16 2 1c-1 18.9-1 18.9-4 25-7-.6-13.3-2-20-4 1-2 1-2 6-4V21h2v11h2l1-2c1.2 3.6.5 4.6-1 8l2.9 1c3.1 1 3.1 1 5.1 2v-9l2 1z"/><path fill="#be866a" d="M13 32v9h-3c.2 2.4.2 2.4 1 5l2 .8c2 1.2 2 1.2 2.5 3L16 56c-4.2-.8-6.1-2.4-8.8-5.7C5 45.9 5.2 40.8 6 36c2.1-3.9 2.4-4 7-4"/><path fill="#935a32" d="M65 17c10.8 7 10.8 7 13 10l-1 4-12 3z"/><path fill="#bb7e4c" d="M32 18h2v16c-5.3-.9-9.1-2-14-4v-2h2v-2l3.9-3c2.2-1.6 4.2-3 6.1-5"/><path fill="#480506" d="M20 70h3c3.7 5.2 3 9.8 2.5 16-.5 3-.5 3-2.5 6l-4-1V78.2l-.1-2.7v-2.6C19 71 19 71 20 70"/><path fill="#5f615e" d="M31 1h5l-1 7h-2l-.7 2.2a19 19 0 0 1-5.8 7.1l-2.4 2.1C22 21 22 21 20 21c.6-3.3 1.7-5.2 3.8-7.7 3-4 5.1-7.8 7.2-12.3"/><path fill="#8f6565" d="M13 43c9.5.4 18.7 1 28 3v1h-6l-.4 3.4L34 54c-2 1-2 1-5.1 0L26 53v-2l-2-1h2l1-4-14-2z"/><path fill="#dc8458" d="M99 85h1v15H87l4.5-6 3.5-5h2z"/><path fill="#c28562" d="M71 85h3c1.8 6.7 1.8 6.7-.2 10-2.4 2.8-4.4 4.7-8 5.4-2.2 0-2.2 0-5.8-.4 1-2.8 2-4 4.4-5.8 3.3-2.8 4.6-5.4 6.6-9.2"/><path fill="#321a0e" d="M52 8c5.2 6 8 12.8 11 20l1-5h1v11h-2v2l-2-1-.4-2.2c-.7-3.2-1.8-5.2-3.5-8l-1.6-2.5L52 17c-.2-2.3-.2-2.3-.1-4.7V10z"/><path fill="#532b1c" d="M36 42.8c2.7 0 4.3.3 7 1.2v3l2.8-.2C49 47 49 47 52 50h-9v2a43 43 0 0 1-10 3l2-8 3-1-8-1c2-2 2-2 6-2.2"/><path fill="#411d10" d="m80 36 3 1-1 5-11.2 2-3.2.6-3 .5-3 .5q-3.7.6-7.6.4l2 9c-2-1.3-2-1.3-4-3v-3H42v-1h10v-4l9.5-1.4 2.7-.4Q72 41 80 40z"/><path fill="#40291c" d="M92 25h2l.2 9v2.6a24 24 0 0 1-6.9 18.8l-1.9 2.1L84 59l-3-1 1-1v-7l2 4h2v-2l2-1a27 27 0 0 0 3-17l-1-2c-2.5-.7-2.5-.7-5-1v-1h6z"/><path fill="#c48047" d="m71 55 3 1 1 9-2 1v6h-2v2h2q-2.3 4.6-5 9l-1-2-3-1h2l.3-2.1c.7-2.9.7-2.9 2.1-5.7 2-4 2.8-7.9 3.6-12.2h-5v-2h4z"/><path fill="#341009" d="m80 43 1 3 3-1-.5 2a59 59 0 0 0-.5 11h-2v3h-2l1-12-3.3 2c-1.9 1.2-1.9 1.2-3.7 2l-3-1h2c.7-1.8.7-1.8 1-4l-2-3c6.8-2 6.8-2 9-2"/><path fill="#b07a58" d="M18 36q9.1.6 18 3v3c-2.9 1.4-5.2.9-8.4.6l-3.5-.2C21 42 21 42 18 41z"/><path fill="#ea9368" d="m0 84 1.7.9 12.5 6 2.7 1.4Q25.2 96.4 34 99v1c-6.5.4-10.3-.7-15.9-3.8A72 72 0 0 0 0 89z"/><path fill="#5a0903" d="M80 70h1c1 4.8 1 9.2 1 14h3c0 3 0 3-1.4 4.7C82 90 82 90 80 90l-1 3h-2l.7-11c.8-10.5.8-10.5 2.3-12"/><path fill="#b97652" d="M25 85h2v2h2v2h2v2h2c1.3 1.5 1.3 1.5 2.6 3.5l1.4 2 1 1.5c-5.3-.5-9.3-1.8-14-4z"/><path fill="#c9864c" d="m53 27 4 2v3l5 2a41 41 0 0 1-7 6h-3c-1.5-4.8-.4-8.3 1-13"/><path fill="#7e4f37" d="M42 24h2c2.3 11.5 2.3 11.5 2 17-5.7-1.9-5.7-1.9-8-3l.6-2 .8-2.7.8-2.7z"/><path fill="#d39354" d="M72 57h1c.5 4.9-1.2 8.6-3 13l-1 2.7-2.2 5C65.7 80 65.7 80 67 83l-3 1c-1.7 1.5-1.7 1.5-3 3 0-3.1 0-5.1 1-8l2-1a30 30 0 0 0 4.7-11.3l.7-3.3.6-2.4H59v-1h13z"/><path fill="#b98663" d="M18 51q6.1 2 12 5l-1 3h-4l-1 2h-2l.6 2.4.4 2.6-2 2-2.3-8.9c-.6-2.8-.8-5.2-.7-8.1"/><path fill="#623c26" d="M13 56h6c1.4 8.2 1.4 8.2 0 11q-3.6 1.5-7.3 2.6c-6 1.8-6 1.8-11.7 4.4v-3c6-3.3 11.3-5 18-6l-1-5-4-1 2-1z"/><path fill="#da8131" d="m90 88 3 2c-.3 3.4-1 5-3.1 7.8-3.6 2.7-5.5 2.6-9.9 2.2 1.4-3.4 3-5 6-7h2z"/><path fill="#b66627" d="m7 72-2 1v6l5 2v2H8v2q-4.3-.9-8-3c-.3-5.3-.3-5.3 0-8 2.6-3 3.2-3.3 7-2"/><path fill="#653316" d="M79 61h2l-1 5q1 0 2 .3c7 1 12.2 3 18 6.7l-1 3-3-1.8q-8.8-5-19-6.2c.9-5.9.9-5.9 2-7"/><path fill="#e59a13" d="m88 72 12 4v7l-4-2v-2l-3 1v-2l-4 1z"/><path fill="#3c2216" d="m5 30 4 3-2 3c-.7 4.9-1.2 10 1.3 14.3l3.4 3.4L13 55v2l3 1-4 1-3.4-4.8-2-2.7C4.1 47.5 4 44.6 4 40v-3.2c0-2.5.4-4.5 1.1-6.9"/><path fill="#0f110e" d="M30.2-.3q3.4 0 6.8.3l-1 3V1h-5l-.7 2Q27.5 9 24 15l-1-2h-2v2l-2-1 1.2-1.8 1.6-2.4 1.7-2.5C25.1 5 25.1 5 26.3 2 28 0 28 0 30.2-.3"/><path fill="#ecac73" d="M27 60h5l-1.6 1.1c-1.8 2-1.8 2-1 5q.2 1.5.6 2.9h2l1 3h2l1.1 4.4.7 2.4.2 2.2-2 2c-2-1-2-1-4-3l-1-7-1.6-3A18 18 0 0 1 27 60"/><path fill="#805538" d="m65 17 9 6-3 1-2-1-1 9 2 1-5 1z"/><path fill="#b28f8e" d="m68 45-4 1v8l-5 1v-8h-4l-1 4v-5c4.7-1.2 9.2-1 14-1"/><path fill="#b68665" d="m80 36 1 4c-2 2-5.5 1.4-8 1.6l-4 .2-3 .2 1-4 4.3-1 2.3-.6C76 36 76 36 80 36"/><path fill="#190e09" d="M68 13c8.4 7 8.4 7 11 10v2l-3 1c-2.5-1.7-2.5-1.7-5.2-4l-2.7-2.2L66 18z"/><path fill="#a04720" d="M81 70c5.3 5.3 5.1 8.7 5.1 15.8A28 28 0 0 1 85 92l-5-1 2-1 1-3h2v-3h-3z"/><path fill="#48150e" d="M75 71h2v18h-2l-1 2-.2-2.8-.2-3.6-.3-3.6c-.1-3-.1-3-1.3-5 1.3-2.6 1.3-2.6 3-5"/><path fill="#b5784f" d="m28 75 1 2 3 1c5 4.1 7.3 9.2 10 15-4-1.6-6.3-4.2-9.1-7.4l-2.7-2.9A27 27 0 0 1 26 76z"/><path fill="#525351" d="m12 6 4 3v2h5a34 34 0 0 1-7 9h-2l.5-1.8c.6-2.3.6-2.3.5-5.2l-3 1z"/><path fill="#501e0a" d="m71 77 2 1a44 44 0 0 1-17 19l-3-2 2-1.2c6-4 10-7.8 14-13.8z"/><path fill="#45494c" d="M74 12c4 3 6.6 5.5 9 10l2 3c-6.5-1.3-10.4-5.6-15-10l2-2 1 1z"/><path fill="#9c5d39" d="M85 35h4l.1 4.3.1 2.3c-.2 2.6-1 4.2-2.2 6.4h-3l-.1-9.3C84 36 84 36 85 35"/><path fill="#895c32" d="M32 18h2v16l-4-1h2l-1-7-6-1z"/><path fill="#8a553f" d="m47 55 3 1v14l-4-1v-6.4l-.1-3.7C46 56 46 56 47 55"/><path fill="#5b5d5a" d="m14 2 2 4h9c-1.1 2.5-1.1 2.5-3 5-3.2.3-3.2.3-6 0V9l-3-1z"/><path fill="#350301" d="m22 75 4 1-.4 6.3-.2 3.6C25 89 25 89 23 92l-4-1 1.5-1c2.2-3 1.8-5.2 1.7-8.7v-3.6z"/><path fill="#170a05" d="M63 34c3.3.6 4.7 1.6 7 4l-5.7 1.6-3.3.8c-2.8.6-4.3.6-7-.4 5.6-4 5.6-4 9-4zm5 1 2 1Z"/><path fill="#6f423a" d="M78 43c-3.2 2.2-4.3 2.2-8 2v5l-3 1v3h-3c-.3-6-.3-6 0-8 4.6-3 8.6-3.1 14-3"/><path fill="#5a5654" d="M42 9c4.7 4.3 5.6 8.8 6 15v11a14 14 0 0 1-2.8-7l-.4-2.4-.4-2.5-.7-4.8-.4-2.2z"/><path fill="#535655" d="M26 10c3 0 3 0 6 2-7.1 7.7-7.1 7.7-12 9 .6-3 1.6-5.2 3.4-7.7l1.2-2z"/><path fill="#f6c091" d="M43 54h2c1.4 2.7 1 5 1 8h-2l-2 7h-2v-6l-2-1h3l.4-2.9C42 56 42 56 43 54"/><path fill="#727372" d="M59 0h8v8h-4c-4-6.9-4-6.9-4-8"/><path fill="#e2ae88" d="M41 80h16l-2 4-8.3-.7C44 83 44 83 41 82z"/><path fill="#a64828" d="M15 71c2.5 3.7 2.2 5.7 2.1 10.2V85l-.1 3c-3 1-3 1-6 0v-4l4-1z"/><path fill="#c07c50" d="m66 93 4 4-2 3c-2 .3-2 .3-4.1.2L60 100c1.4-3.4 3-5 6-7"/><path fill="#ab785b" d="M85 31c2.4-.2 2.4-.2 5 0 2.2 3.3 2.2 4.3 2.1 8.2v2.7L92 44c-1.5-1.3-1.5-1.3-3-3-.2-3.2-.2-3.2 0-6l-3 1z"/><path fill="#590b04" d="m19 63 2 1c.8 3 .8 3 1 6l-2 2-1 6-2-1-2-7 4-1z"/><path fill="#f3e4df" d="M84 65c4.5-.2 8-.3 12 2 .8 2.1.8 2.1 1 4h3l-1 2-2.2-1-3-1.4-3-1.4Q87.2 67.6 83 67z"/><path fill="#7d2708" d="m99 85 1 3c-1.1 2-1.1 2-2.8 4.2l-1.7 2.2L94 96h-2l-2 4-3-1 1.2-1.4 1.7-2 1.6-1.8c1.7-2 1.7-2 3.5-4.8h2z"/><path fill="#781c09" d="M0 82c4 .8 7.4 2.4 11 4v2l5 1c-1.7 1.1-1.7 1.1-4 2-2.3-.8-2.3-.8-4.6-2.2l-2.3-1.4L0 84z"/><path fill="#e4a65e" d="M78 68c7.5.6 15.8 2.1 21 8a37 37 0 0 1-10-3.2c-3.6-1.4-7.3-2-11-2.8z"/><path fill="#cc9864" d="M48.6 50H52l1 5-8 1-1-5c1-1 1-1 4.6-1"/><path fill="#65635b" d="M52 8q5.3 5.8 8 13l-1 3-3.5-4.6-2-2.6A13 13 0 0 1 52 8"/><path fill="#bb876c" d="M9 47c4.6 1.5 4.6 1.5 6.3 4 .7 2 .7 2 .7 5-3.1-.3-4-1-6.3-3.4L8 50z"/><path fill="#260803" d="M84 31h1l-.3 6.9-.2 3.8L84 45l-3 2-3-2h2v-2l-4-1h6l.4-3.2q.6-4 1.6-7.8"/><path fill="#b17857" d="m64 83 3 1a35 35 0 0 1-11 10h-2q1.8-3.7 4-7l4-1z"/><path fill="#5f0703" d="m17 77 3 1 .1 4.8.1 2.7C20 88 20 88 18 91l-2-1z"/><path fill="#9d4916" d="M77 93h4v2h-2v5h-8l1-2h2l1-2c1-2 1-2 2-3"/><path fill="#d68a54" d="m22 56 2 3 3-1 2 1v-2l5 2v1h-7l-1 4-5-2z"/><path fill="#dfc4bf" d="M31 46h3v8l-2 1-3-1v-6h2z"/><path fill="#9f6a52" d="M6 36h1l1 9 3-1v2l4 2-1 3v-2a36 36 0 0 0-8-1z"/><path fill="#c98147" d="m23 63 4 1 2 9-2 1-.3-2-.7-2-3-1z"/><path fill="#4e2713" d="M79 61h2l-1 5 7 1v2l-10-1c.9-5.9.9-5.9 2-7"/><path fill="#532f2f" d="M55 47h4c.1 7.8.1 7.8-1 10l-3-1z"/><path fill="#351b11" d="m5 45 4 5 2.3 2.7C13 55 13 55 13 57l3 1-4 1-3.5-4.7-2-2.7C5 49 5 49 5 45"/><path fill="#af8068" d="m36 40 7 1v2h2v3l2 1h-4v-3l-9-1 2-1z"/><path fill="#7c5133" d="m41 96 2 .5c4 .7 8 .6 12 .5l-1 2c-3.2.4-3.2.4-7 .6l-4 .3-3 .1z"/><path fill="#c3671c" d="M99 92h1v8h-7l3-4 1.6-2.2z"/><path fill="#f2efe7" d="M86 56c1.4 2.7 1 5 1 8h-7c.2-2.3.2-2.3 1-5 2.6-1.8 2.6-1.8 5-3"/><path fill="#b37b60" d="M41 32h2l1 7h2v2c-5.7-1.9-5.7-1.9-8-3v-2h3z"/><path fill="#451908" d="m46 32 4 4-2 6-9-1 3-2 4 2z"/><path fill="#3b1304" d="M39 93q3.2.6 6 2l5.1.6 2.8.2 2.1.2c-2 2-2 2-5.2 2.3-4.3-.3-7-1.4-10.8-3.3z"/><path fill="#4a1614" d="m20 45 7 1-1 4c-1.9.6-1.9.6-4 1l-2-2z"/><path fill="#775539" d="M52 17c4 4 4 4 5 7l-1.9.8C52.7 26 52.7 26 51 29z"/><path fill="#df9659" d="M72 57h1c.4 4.8-1 7.8-3 12h-1l1-8H59v-1h13z"/><path fill="#e7d1d3" d="M60 47h3l1 7-4 1z"/><path fill="#d87d4c" d="M0 84c3.8 1.6 6.2 4 9 7q-4.5-.8-9-2z"/><path fill="#320f05" d="M52 46h2l2 9c-2-1.3-2-1.3-4-3v-3H42v-1h10z"/><path fill="#c36d28" d="m16 95 4.4 1.4 2.5.7C25 98 25 98 26 100l-10-1z"/><path fill="#c27753" d="m27.1 55 2.9 1-1 3h-4l-1 2-2-6c2-1 2-1 5.1 0"/><path fill="#5f4236" d="m82 50 2 4h2v-2h2c-.6 3.3-1.5 4.8-4 7l-3-1 1-1z"/><path fill="#b37b59" d="m58 32 4 2a22 22 0 0 1-8 6q.9-3.6 2-7z"/><path fill="#2b1a13" d="M44 18h1c1.2 5.7 1 11.2 1 17h-1l-1-11h-2v-3h2z"/><path fill="#da8666" d="m22 95 12 4v1c-5.4.3-8.5.4-13-3z"/><path fill="#b38254" d="M71 85h3l-3 9h-2c-.7-1.7-.7-1.7-1-4 1.3-2.7 1.3-2.7 3-5"/><path fill="#926a54" d="m67 40-1 2 2 1-10-1v-2c3.4-.8 5.7-1.1 9 0"/><path fill="#c78e66" d="M30 38v3h-8v-3c2.9-1.4 5-.6 8 0"/><path fill="#8a553d" d="M12 32h1v9h-3l-1 3v-7l3-1z"/><path fill="#6c4d36" d="M34 18v5h-5v2l-4-1 3.4-3 1.9-1.7C32 18 32 18 34 18"/><path fill="#262e2e" d="m19 18 1 3 5-2c-1.3 2.4-2.4 3.8-5 4.7L14 25z"/><path fill="#bd8061" d="M25 85h2v2h2v5l-4 1z"/><path fill="#b17148" d="m42 93 4.3-.1 2.4-.1C51 93 51 93 54 95c-1.9 1.9-4.5 1.2-7 1.3-2.5-.4-3.4-1.4-5-3.3"/><path fill="#2e0603" d="m73 75 3 1v10l-2-1q-1-5-1-10"/><path fill="#350b06" d="M69 53v2a21 21 0 0 1-11 2v-3l4.4-.5 2.4-.3z"/><path fill="#663a3a" d="M35 47h6l-3 1-1 6-4 1z"/><path fill="#421d12" d="M33.9 42.8H38c2 .2 2 .2 4 1.2v2l-12-1c2-2 2-2 3.9-2.2"/><path fill="#2a1c12" d="M92 25h2l-1 9h-2l-1-2c-2.5-.7-2.5-.7-5-1v-1h6z"/><path fill="#42423f" d="M14 13h3l1 3-4 4h-2q.8-3.6 2-7"/><path fill="#8e573c" d="m65 88 1 2-3 6h-4c1.4-3.4 3.3-5.5 6-8"/><path fill="#c36b1f" d="M6 91c5.5.6 5.5.6 7.9 2.6L15 95c-6.7.1-6.7.1-9-1z"/><path fill="#dda166" d="M31 75h2v2h3c.6 1.9.6 1.9 1 4l-2 2c-2-1.2-2-1.2-4-3-.2-2.7-.2-2.7 0-5"/><path fill="#d99e87" d="M83 48h4l-1 6-3 1z"/><path fill="#c78651" d="m68 26 4 2v4h-4z"/><path fill="#140906" d="M85 24c3 2 3 2 4 4h2v2l-7 1 1-5-2-1z"/><path fill="#621806" d="m75 92 1 3-5 5-3-1z"/><path fill="#834b2d" d="M85 35h1v6h2v2l-4 2-.1-7c.1-2 .1-2 1.1-3"/><path fill="#250e03" d="m27 20 3 1c-5.7 5-5.7 5-8 5l-1 2-1-3c3.6-3 3.6-3 7-3z"/><path fill="#99653d" d="M67 86h2c-.2 2.9-.2 2.9-1 6-2 1.4-2 1.4-4 2z"/><path fill="#7e4347" d="m64 47 6 2-3 2v3h-3z"/><path fill="#a87159" d="M76 36h4l1 4-5 1z"/><path fill="#8f664c" d="M42 24h1v8h-2v4h-2q.9-6.1 3-12"/><path fill="#e3e2db" d="m94 24 2 1c0 3.2 0 6-1 9h-2c-.1-6.6-.1-6.6 1-10"/><path fill="#c27d5f" d="M30 92c3.3.3 4 1 6.3 3.6L38 98c-2.3-.2-2.3-.2-5-1-1.8-2.6-1.8-2.6-3-5"/><path fill="#9c6840" d="M34 85h2v2l1.9.2c2.1.8 2.1.8 3.4 3.4L42 93c-3.8-1.5-5.6-3.7-8-7z"/><path fill="#e6b182" d="m52 88-4 1v2h-3v-2l-3-1c3.6-1.2 6.3-.7 10 0"/><path fill="#e38b09" d="m88 74 4 1-1 2 5 1-3 2v-2l-4 1z"/><path fill="#1d0a06" d="m20 30 8 2v2h-6v-2h-2z"/><path fill="#2c3030" d="M78 16c2.8 1.4 3.5 3.3 5 6l2 3-6-2c-1-4.7-1-4.7-1-7"/><path fill="#20221f" d="M28 0h9l-1 3V1h-5v2l-5 1z"/><path fill="#e78e4c" d="m97 84 1 3c-1.4 2.3-3.2 4-5 6l-1-3c2.3-4.7 2.3-4.7 5-6"/><path fill="#bd8257" d="M31 81q3.2.6 6 2l1 4h-2v-2l-2-.3-2-.7z"/><path fill="#f3f4ee" d="M96 65h4v6h-3c-1-3-1-3-1-6"/><path fill="#4f1e0e" d="m15 50 4 1-1 8a18 18 0 0 1-3-9"/><path fill="#dacdc9" d="M4 46q2.9 4.4 5 9H5c-1.5-3-1-5.7-1-9"/><path fill="#491a1c" d="m36 48 5 1c-.3 2-.3 2-1 4l-3 1z"/><path fill="#352315" d="m91 44 2 4-5 5z"/><path fill="#1a0603" d="m13 32 5 4v2h-2l-1 2v-2h-2z"/><path fill="#6d1904" d="m93 93 2 1-1 2h-2l-2 4-3-1z"/><path fill="#cb8e61" d="M67 81v2l-3 1c-1.7 1.5-1.7 1.5-3 3v-4c3-2 3-2 6-2"/><path fill="#9c4d03" d="M4 73h4v5l-4 2z"/><path fill="#b2794d" d="M76 50c2 1 2 1 3 3h-2v2l-5-1z"/><path fill="#da8" d="m15 51 1 5c-2-.3-2-.3-4-1l-1-3c2-1 2-1 4-1"/><path fill="#7c5446" d="M32 39h4v3c-2.7 1.4-5 1-8 1l4-1z"/><path fill="#6e4c40" d="m74 24 4 3-1 4h-3z"/><path fill="#775039" d="m24 25 2 2-2 4-4-1v-2h2v-2z"/><path fill="#0f0f0b" d="M21 13h2l-1 4c-3.7 1.1-3.7 1.1-6 0l2-2h3z"/><path fill="#585a57" d="M31 1h5v5l-1-2h-5z"/><path fill="#4e0e0c" d="m22 70 3 4-3 1v5h-1c-.1-7.7-.1-7.7 1-10"/><path fill="#51170b" d="m19 63 2 1 1 6-4 1z"/><path fill="#eed9dd" d="M93 67h3l1 4h3l-1 2-6-3z"/><path fill="#4b1b11" d="m58 37 5 2v1l-9 1z"/><path fill="#a1643f" d="m50 36 .8 2c1 2.3 1 2.3 4.2 3-1.8.6-1.8.6-4 1l-3-2z"/><path fill="#7b5c41" d="M18 36h6l-3 1c-.7 2-.7 2-1 4h-2z"/><path fill="#464b4d" d="m24 13 2 3-1.4 1.4c-1.7 1.5-1.7 1.5-2.6 3.6h-2c.6-3.4 1.8-5.4 4-8"/><path fill="#4a4a4a" d="m12 6 2 2c-.4 2.6-.4 2.6-1 5l-3 1z"/><path fill="#6b6c6b" d="m14 5 1 2h7v1h-5l-1 3V9l-3-1z"/></svg>